<?xml version="1.0" encoding="UTF-8" standalone="no"?>
<!-- Created with Inkscape (http://www.inkscape.org/) -->

<svg
   width="100mm"
   height="100mm"
   viewBox="0 0 100 100"
   version="1.1"
   id="svg5"
   xmlns="http://www.w3.org/2000/svg"
   xmlns:svg="http://www.w3.org/2000/svg">
  <defs
     id="defs2">
    <marker
       style="overflow:visible;"
       id="Arrow2Lend"
       refX="0.0"
       refY="0.0"
       orient="auto">
      <path
         transform="scale(1.1) rotate(180) translate(1,0)"
         d="M 8.7185878,4.0337352 L -2.2072895,0.016013256 L 8.7185884,-4.0017078 C 6.9730900,-1.6296469 6.9831476,1.6157441 8.7185878,4.0337352 z "
         style="stroke:context-stroke;fill-rule:evenodd;fill:context-stroke;stroke-width:0.62500000;stroke-linejoin:round;"
         id="path21051" />
    </marker>
    <linearGradient
       id="linearGradient19117">
      <stop
         style="stop-color:#990000;stop-opacity:1;"
         offset="0"
         id="stop19115" />
    </linearGradient>
    <linearGradient
       id="linearGradient19093">
      <stop
         style="stop-color:#990000;stop-opacity:1;"
         offset="0"
         id="stop19091" />
    </linearGradient>
  </defs>
  <g
     id="layer1">
    <path
       style="opacity:1;fill:#990000;fill-opacity:1;fill-rule:nonzero;stroke:none;stroke-width:0.909044;stroke-linecap:butt;stroke-linejoin:round;stroke-miterlimit:4;stroke-dasharray:none;stroke-dashoffset:0;stroke-opacity:1;paint-order:normal"
       d="M 42.601554,92.405503 C 42.014222,92.013325 41.512,91.015109 41.512,90.239909 c 0,-0.774814 0.699542,-1.499258 11.280136,-11.681616 L 64.072271,67.702718 52.792136,56.848946 C 41.642969,46.121196 41.512,45.984125 41.512,45.043215 c 0,-1.017691 0.256011,-1.451967 1.219669,-2.068933 1.364398,-0.873536 1.156618,-1.039114 13.12675,10.460776 6.210974,5.96698 11.399895,10.849055 11.530937,10.849055 0.131044,0 5.319966,-4.882075 11.530938,-10.849055 C 87.191083,45.48919 90.362279,42.586 90.770901,42.586 c 1.36145,0 2.741099,1.326586 2.741099,2.635675 0,0.392903 -3.019313,3.442136 -11.283019,11.394807 -6.205658,5.972092 -11.283022,10.961441 -11.283022,11.087442 0,0.126002 5.077364,5.115352 11.283022,11.087444 C 90.492687,86.74404 93.512,89.793273 93.512,90.186175 c 0,0.72821 -0.636644,1.860486 -1.212825,2.156987 -0.259547,0.133561 -0.890583,0.242838 -1.4023,0.242838 -0.899904,0 -1.300556,-0.355662 -12.218339,-10.846285 L 67.390612,70.893428 56.100816,81.739715 C 44.984236,92.419586 44.79606,92.585946 43.836035,92.582389 c -0.536239,-0.0019 -1.091757,-0.08159 -1.234481,-0.176886 z"
       id="path24599" />
    <path
       style="opacity:1;fill:#189900;fill-opacity:1;fill-rule:nonzero;stroke:none;stroke-width:0.709247;stroke-linecap:butt;stroke-linejoin:round;stroke-miterlimit:4;stroke-dasharray:none;stroke-dashoffset:0;stroke-opacity:1;paint-order:normal"
       d="M 28.609265,64.993268 C 28.262087,64.867083 24.547218,60.35904 16.648835,50.479117 L 5.192,36.148002 v -0.944645 c 0,-0.791363 0.095275,-1.07088 0.5871615,-1.722575 0.5070587,-0.671801 0.6894735,-0.77793 1.3370846,-0.77793 0.5890095,0 0.8682395,0.130612 1.3013273,0.608721 0.3032712,0.334797 5.0547776,6.234813 10.5588986,13.111147 5.504122,6.87633 10.08892,12.502421 10.188441,12.502421 0.09953,0 9.771331,-11.965231 21.492909,-26.589402 C 62.379402,17.711567 72.107496,5.6047377 72.27581,5.4316682 72.444117,5.2586033 72.89764,5.117 73.283638,5.117 c 0.588708,0 0.799029,0.1251003 1.305086,0.7762726 C 75.110796,6.565048 75.192,6.8048278 75.192,7.6745397 V 8.6795403 L 52.739962,36.741235 c -12.34862,15.433933 -22.603118,28.115488 -22.787768,28.181231 -0.677269,0.24114 -0.849312,0.250212 -1.342929,0.0708 z"
       id="path25696" />
    <g
       aria-label="#"
       transform="scale(1.1236882,0.88992658)"
       id="hash"
       style="font-size:160.153px;line-height:1.25;font-family:Algerian;-inkscape-font-specification:'Algerian, Normal';fill:#1a1a1a;fill-opacity:0.75;stroke-width:0.83413">
      <path
         d="M 48.299317,72.875677 H 37.742357 L 32.581176,109.62954 H 22.415214 l -1.485794,-1.79859 h 9.696763 l 5.239381,-37.144865 h 12.746552 l 0.625598,-4.457383 H 31.877379 L 26.716198,103.21716 H 16.550236 L 20.77302,72.875677 H 5.3676779 L 4.5856809,70.686085 H 21.085819 l 0.625598,-4.457383 H 2.5524885 V 59.738126 H 22.649813 l 1.407595,-9.774963 H 8.6520656 L 7.8700686,47.773571 H 24.370207 l 0.547398,-4.457383 H 6.3060744 V 36.591013 H 25.856001 L 30.626183,2.8869395 H 40.870345 L 36.100163,36.591013 h 4.535583 L 44.93673,6.1713272 46.969922,6.7969248 42.825338,36.591013 h 10.47876 L 58.07428,2.8869395 H 68.083843 L 63.313661,36.591013 h 4.613783 L 72.228427,6.1713272 74.26162,6.7969248 70.117035,36.591013 h 10.79156 v 6.725175 H 62.375264 l -2.267791,16.421938 h 4.535583 l 1.720393,-11.964555 h 18.84613 l -0.234599,-9.696763 1.563994,1.720393 0.156399,10.165962 H 68.240242 l -1.407594,9.774963 h 10.55696 v 6.490576 H 59.169076 l -5.16118,36.988458 h -9.931363 z m 3.206188,-22.912514 h -10.55696 l -1.407595,9.774963 h 10.63516 z m 0.938397,-6.646975 H 35.161766 l -2.345991,16.421938 h 4.535583 l 1.720394,-11.964555 h 12.746552 z m 7.428972,66.313352 H 49.706912 l -1.485795,-1.79859 h 9.696764 l 5.23938,-37.144865 h 18.84613 l -0.234599,-9.696763 1.563994,1.720393 0.156399,10.165962 H 65.034054 Z"
         id="path17" />
    </g>
  </g>
</svg>
