<?xml version="1.0" standalone="no"?>
<!DOCTYPE svg PUBLIC "-//W3C//DTD SVG 20010904//EN"
 "http://www.w3.org/TR/2001/REC-SVG-20010904/DTD/svg10.dtd">
<svg version="1.0" xmlns="http://www.w3.org/2000/svg"
 width="700.000000pt" height="700.000000pt" viewBox="0 0 700.000000 700.000000"
 preserveAspectRatio="xMidYMid meet">
<metadata>
Created by potrace 1.14, written by Peter Selinger 2001-2017
</metadata>
<g transform="translate(0.000000,700.000000) scale(0.100000,-0.100000)"
fill="#000000" stroke="none">
<path d="M2406 6798 c-10 -43 -25 -133 -31 -173 -5 -42 -11 -71 -20 -115 -7
-32 -11 -54 -20 -110 -4 -25 -9 -54 -11 -65 -3 -11 -7 -35 -10 -54 -3 -18 -8
-43 -10 -55 -2 -11 -7 -36 -10 -55 -3 -18 -8 -43 -10 -55 -18 -95 -24 -139
-20 -144 3 -3 1 -11 -5 -18 -6 -7 -12 -30 -13 -51 -1 -21 -5 -43 -8 -48 -3 -6
-8 -31 -12 -56 -9 -62 -15 -98 -23 -134 -3 -16 -7 -39 -9 -50 -1 -11 -5 -35
-8 -52 -3 -18 -8 -48 -11 -65 -3 -18 -8 -40 -10 -48 -2 -8 -7 -35 -10 -60 -4
-24 -8 -47 -10 -50 -3 -5 -10 -43 -20 -120 -1 -8 -5 -26 -8 -40 -4 -14 -9 -43
-12 -65 -3 -22 -8 -49 -10 -60 -2 -11 -6 -38 -10 -60 -3 -22 -8 -47 -10 -55
-2 -8 -6 -28 -9 -45 -10 -63 -17 -101 -23 -130 -3 -16 -6 -34 -6 -40 0 -7
-256 -9 -751 -7 -413 1 -770 0 -794 -3 -73 -11 -128 -91 -131 -192 l-1 -52
161 -203 c89 -112 169 -211 177 -221 12 -13 13 -20 4 -29 -7 -7 -12 -8 -12 -2
0 5 -9 10 -20 11 -11 1 -20 -4 -20 -10 0 -8 -3 -7 -9 2 -5 7 -11 9 -13 5 -7
-13 37 -105 46 -97 4 4 4 0 1 -9 -9 -24 11 -31 82 -30 57 1 66 -2 88 -26 56
-63 463 -577 459 -581 -2 -2 -250 -4 -553 -4 l-549 0 1 -201 1 -202 35 1 c20
0 42 5 50 9 9 6 12 5 7 -2 -4 -7 1 -10 14 -9 11 1 20 6 20 12 0 7 3 6 8 -1 9
-13 85 -13 94 0 5 8 8 8 8 0 0 -13 88 -13 109 0 10 6 12 5 7 -2 -4 -7 -2 -12
3 -12 6 0 11 6 11 13 0 8 3 8 8 1 9 -14 324 -13 334 1 5 7 8 7 8 0 0 -13 89
-13 109 -1 10 6 12 5 7 -2 -4 -7 -2 -12 3 -12 6 0 11 6 11 13 0 8 3 8 8 2 10
-14 92 -15 92 -1 0 7 3 8 8 1 9 -14 125 -14 134 -1 6 8 8 8 8 0 0 -6 20 -10
45 -10 25 0 45 4 45 10 0 8 3 8 8 1 9 -14 125 -14 134 -1 5 8 8 7 8 0 0 -8 18
-11 50 -10 48 3 52 1 79 -36 23 -31 28 -45 22 -66 -5 -15 -8 -41 -7 -59 1 -17
-2 -29 -6 -26 -5 2 -8 -11 -9 -29 -1 -65 4 -64 -191 -63 -116 0 -178 -3 -178
-10 0 -7 -3 -7 -8 0 -10 14 -225 14 -234 0 -5 -6 -8 -6 -8 0 0 14 -230 14
-230 0 0 -7 -3 -7 -8 0 -4 7 -87 11 -228 11 l-222 0 17 -36 c9 -19 20 -38 24
-41 5 -3 8 -10 8 -15 0 -5 2 -17 5 -26 5 -16 50 -17 607 -17 l602 1 0 -51 c0
-28 -3 -51 -6 -51 -3 0 -6 -6 -6 -12 0 -14 -7 -56 -21 -129 -5 -25 -8 -57 -8
-71 1 -15 -2 -24 -6 -22 -4 3 -8 -7 -9 -23 0 -15 -2 -35 -4 -43 -2 -8 -6 -31
-9 -50 -4 -19 -8 -46 -11 -60 -3 -14 -7 -41 -10 -60 -3 -19 -14 -82 -25 -140
-11 -58 -28 -159 -40 -225 -25 -152 -28 -167 -34 -173 -3 -2 -1 -14 5 -25 6
-10 7 -17 2 -14 -7 5 -21 -60 -48 -218 -3 -16 -7 -41 -10 -55 -11 -57 -14 -77
-20 -114 -3 -22 -8 -42 -10 -44 -3 -3 1 -12 8 -20 7 -10 8 -13 1 -9 -13 7 -30
-75 -20 -92 4 -5 2 -11 -3 -13 -8 -3 -14 -26 -27 -123 -3 -21 -8 -43 -10 -47
-3 -4 175 -8 395 -8 l400 0 10 53 c6 28 13 70 17 92 4 22 8 49 10 60 16 87 44
246 48 275 3 19 10 60 16 90 6 30 13 71 16 90 3 19 9 53 14 75 4 22 8 47 8 55
1 8 6 38 12 65 6 28 13 66 16 85 3 19 7 46 10 60 3 14 6 34 8 45 2 11 11 63
21 115 10 52 19 104 20 115 2 11 6 34 9 50 15 81 19 113 20 142 1 17 4 29 7
27 4 -2 9 20 13 50 3 29 15 101 27 160 11 60 19 117 16 127 -3 10 -2 17 2 15
5 -4 44 192 58 294 11 80 27 156 36 161 5 4 25 5 43 3 22 -2 34 1 34 9 0 8 3
9 8 1 8 -12 76 -13 88 -2 4 4 14 3 21 -4 11 -9 17 -9 24 3 5 8 9 9 9 4 0 -7
23 -11 54 -11 32 0 52 4 49 10 -4 5 -1 6 8 1 21 -14 59 -15 59 -2 0 8 3 8 8 2
11 -16 34 -17 43 -3 5 7 9 8 9 3 0 -15 80 -17 80 -2 0 8 3 8 8 2 9 -14 113
-15 105 -2 -4 6 -1 7 8 2 21 -14 59 -15 59 -2 0 8 3 8 8 2 11 -16 34 -17 43
-3 5 7 9 8 9 3 0 -15 80 -17 80 -2 0 8 3 8 8 2 9 -14 113 -15 105 -2 -4 6 -1
7 8 2 21 -14 59 -15 59 -2 0 8 3 8 8 2 9 -14 125 -14 134 -1 5 8 8 8 8 0 0 -7
25 -10 70 -9 96 2 105 -9 86 -105 -4 -19 -9 -46 -11 -60 -2 -14 -7 -40 -10
-57 -4 -24 -2 -33 7 -34 12 0 -25 -19 -47 -23 -5 -1 -16 -6 -24 -10 -8 -6 -12
-5 -8 0 8 13 -216 13 -225 -1 -5 -6 -8 -7 -8 0 0 14 -230 14 -230 0 0 -7 -3
-7 -8 0 -10 15 -384 15 -394 0 -5 -6 -8 -6 -8 2 0 7 -13 11 -34 10 -37 -2 -35
1 -52 -107 -2 -8 -5 -26 -8 -39 -8 -35 -19 -112 -20 -143 -1 -14 -4 -24 -8
-22 -4 3 -6 -4 -6 -13 0 -10 -5 -46 -11 -81 -7 -34 -9 -66 -6 -71 3 -5 1 -11
-4 -13 -8 -3 -13 -28 -27 -123 -2 -16 -12 -69 -22 -117 -12 -58 -15 -93 -9
-104 7 -12 6 -15 -2 -10 -6 4 -11 0 -12 -11 0 -10 -2 -25 -4 -33 -2 -8 -6 -31
-9 -50 -4 -19 -11 -62 -17 -95 -6 -33 -13 -71 -15 -85 -3 -14 -7 -36 -10 -50
-4 -14 -7 -41 -9 -61 -1 -20 -5 -40 -8 -45 -6 -11 -32 -172 -30 -196 0 -10 -4
-18 -9 -18 -5 0 -8 -6 -5 -12 2 -7 1 -22 -4 -34 -4 -11 -10 -47 -14 -80 -9
-73 -10 -83 -18 -114 -4 -14 -9 -36 -11 -50 -2 -14 -7 -36 -10 -50 -3 -14 -8
-41 -11 -60 -4 -34 -6 -44 -25 -145 -5 -27 -11 -61 -14 -75 -2 -14 -12 -67
-21 -117 l-17 -93 -42 2 c-22 2 -46 -1 -53 -5 -6 -4 -14 -4 -16 0 -6 9 -370 8
-385 -1 -6 -3 -13 -2 -17 3 -3 6 -15 7 -28 2 -12 -5 -30 -6 -39 -2 -14 5 -105
6 -165 2 -7 -1 13 -26 45 -56 l57 -55 398 0 c304 1 399 3 402 13 2 7 6 32 9
57 4 25 17 103 31 175 13 72 33 184 45 250 11 66 22 131 25 145 2 13 7 40 10
60 3 20 8 47 11 60 3 14 7 39 9 55 2 17 5 31 6 33 3 4 21 112 23 144 1 3 4 10
8 13 4 4 3 17 -3 28 -8 14 -8 18 0 13 7 -5 12 2 13 16 0 13 2 28 3 33 7 38 19
113 20 125 0 9 4 20 8 26 3 6 8 34 9 62 2 29 6 52 10 52 4 0 7 8 6 18 0 15 11
80 27 162 11 59 15 77 19 110 3 19 8 45 10 56 2 12 7 38 10 59 4 20 9 41 12
46 3 5 -1 9 -8 9 -9 0 -10 3 -2 8 6 4 15 30 19 57 10 58 11 68 21 115 9 45 11
56 20 110 4 25 8 50 10 55 1 6 5 30 9 55 4 25 9 47 11 49 2 2 0 9 -5 15 -7 8
106 10 402 9 227 -1 418 -2 425 -3 13 0 12 -20 -8 -115 -6 -27 -12 -63 -15
-80 -2 -16 -8 -55 -14 -85 -6 -30 -13 -68 -15 -85 -3 -16 -9 -51 -14 -76 -5
-25 -8 -57 -8 -71 1 -15 -1 -25 -5 -22 -6 3 -19 -71 -25 -136 -1 -14 -4 -32
-7 -40 -3 -8 -11 -49 -18 -90 -6 -41 -13 -84 -16 -95 -2 -11 -6 -37 -9 -58 -9
-66 -19 -81 -125 -183 -265 -255 -578 -572 -592 -599 -28 -58 8 -160 70 -194
12 -6 44 -11 71 -11 67 0 103 26 333 244 47 44 96 90 108 101 l23 20 -6 -35
c-3 -19 -8 -48 -11 -65 -3 -16 -8 -46 -11 -65 -3 -19 -7 -42 -9 -50 -3 -8 -7
-34 -10 -57 l-5 -42 390 1 389 2 7 45 c3 25 10 62 15 81 5 20 11 52 13 73 5
34 7 49 21 132 3 17 15 80 26 140 12 61 23 126 25 145 2 19 9 59 15 89 5 29 8
60 5 68 -3 8 -2 12 3 9 5 -3 12 16 16 42 3 26 8 54 10 62 6 29 18 105 20 130
1 14 5 32 8 40 3 8 8 33 11 55 13 98 14 101 143 225 68 66 127 120 131 120 4
0 33 -26 64 -58 57 -58 71 -93 53 -136 -5 -11 -3 -26 3 -37 9 -14 9 -17 -2
-13 -13 5 -17 -11 -33 -130 -4 -29 -2 -37 7 -31 9 5 11 4 6 -4 -4 -6 -11 -9
-15 -7 -10 7 -45 -210 -36 -225 5 -8 4 -10 -3 -5 -7 4 -12 0 -13 -11 0 -10 -2
-25 -4 -33 -2 -8 -6 -32 -10 -54 -4 -21 -8 -47 -10 -56 -2 -10 -7 -40 -11 -67
-5 -26 -9 -50 -9 -53 -1 -3 -5 -25 -9 -50 -5 -25 -10 -54 -12 -65 -2 -11 -11
-58 -19 -105 -8 -47 -17 -96 -20 -110 -5 -25 -8 -42 -25 -140 -12 -71 -20
-114 -30 -170 -4 -25 -13 -77 -20 -117 l-13 -72 -72 1 c-40 1 -77 -2 -83 -6
-7 -4 -12 -3 -12 2 0 7 -41 8 -76 1 -5 -1 -11 0 -14 1 -16 6 -380 4 -380 -3 0
-4 -8 -4 -17 0 -10 5 -27 7 -38 7 -11 -1 -31 -2 -44 -3 -21 -1 -18 -7 33 -56
l57 -54 399 0 398 0 7 37 c16 83 18 98 19 129 1 18 4 33 7 33 4 0 9 21 13 48
3 26 9 61 12 77 3 17 7 41 9 55 2 14 4 25 5 25 1 0 3 11 5 25 1 14 5 39 9 55
19 98 26 137 24 143 -1 4 2 14 5 22 3 8 8 33 11 55 2 22 7 54 11 70 12 63 29
155 40 220 3 17 7 41 10 55 3 14 7 39 10 55 2 17 6 39 8 50 3 11 8 42 11 68 8
51 12 75 21 117 12 55 15 75 36 194 l11 68 71 -68 c38 -38 84 -82 102 -99 17
-16 126 -120 241 -231 115 -111 232 -223 259 -249 28 -26 127 -121 220 -210
184 -176 184 -177 297 -278 112 -101 139 -117 195 -117 73 0 113 25 146 91 20
40 27 64 22 80 -7 25 -480 499 -915 919 -134 129 -316 306 -405 392 l-161 158
17 110 c20 119 25 133 62 168 l25 24 699 0 c585 0 700 2 700 13 0 8 -5 11 -11
8 -6 -4 -6 0 1 8 14 18 13 70 -2 81 -7 5 -6 8 0 8 12 0 13 49 2 68 -5 7 -3 12
3 12 8 0 8 6 0 20 -8 14 -8 20 0 20 6 0 8 5 5 10 -4 6 -7 68 -7 138 0 78 -5
133 -12 141 -8 11 -8 13 0 8 8 -5 11 9 9 44 -2 44 -7 56 -36 82 -19 17 -46 41
-61 55 l-26 24 2 -48 c1 -27 5 -54 9 -61 4 -6 3 -15 -3 -18 -8 -5 -7 -11 1
-21 9 -11 9 -14 0 -14 -7 0 -10 -4 -7 -9 3 -5 8 -99 11 -211 3 -111 7 -207 8
-213 1 -8 -116 -11 -413 -11 -228 -1 -421 -5 -429 -10 -9 -6 -12 -5 -8 0 8 13
-216 13 -225 -1 -5 -7 -8 -6 -8 1 0 6 -15 10 -35 9 l-36 -1 73 69 c40 38 106
101 145 140 l73 71 112 1 c62 0 119 5 127 9 10 6 12 5 7 -2 -4 -7 -2 -12 3
-12 6 0 11 6 11 13 0 8 3 8 8 1 4 -5 25 -10 47 -10 22 0 43 5 47 10 5 8 8 8 8
0 0 -12 74 -13 86 -1 4 4 13 2 21 -4 16 -14 15 -17 18 61 2 40 -2 68 -9 72 -8
6 -8 8 0 8 8 0 11 41 11 129 l0 130 -38 -2 c-21 -2 -37 -1 -36 0 1 1 113 114
248 250 284 287 292 296 284 334 l-6 28 118 0 c65 0 127 0 139 1 20 0 21 3 18
163 -1 89 -3 229 -3 311 l-1 149 -58 53 c-31 30 -59 54 -62 54 -3 0 -4 -24 -3
-52 2 -47 13 -404 15 -483 1 -61 1 -62 -44 -61 -27 1 -49 -5 -58 -14 -8 -9
-11 -10 -6 -3 11 16 25 15 -194 17 -155 1 -187 -2 -200 -14 -8 -9 -11 -10 -6
-3 5 7 7 13 5 14 -2 1 -71 2 -154 2 -124 2 -153 -1 -165 -13 -8 -9 -11 -10 -6
-3 11 16 20 15 -109 17 -88 1 -113 -2 -125 -14 -8 -9 -11 -10 -6 -3 10 15 12
14 -39 18 -22 1 -46 -2 -52 -8 -8 -6 -13 -6 -13 0 0 16 -33 11 -50 -7 -8 -9
-11 -10 -6 -3 10 16 13 15 -51 17 -29 1 -53 -2 -53 -7 0 -4 -5 -5 -12 -1 -17
11 -68 13 -68 2 0 -5 -7 -5 -17 0 -26 14 -57 -1 -60 -29 -1 -13 -4 -35 -7 -49
-9 -56 -27 -157 -32 -180 -9 -41 -20 -100 -30 -160 -13 -74 -15 -86 -33 -175
-5 -27 -12 -70 -16 -95 -4 -25 -8 -47 -10 -48 -3 -4 -277 -6 -333 -3 -22 1
-23 3 -16 54 4 28 8 64 8 79 1 14 4 24 7 22 4 -2 9 18 12 44 9 65 16 108 28
168 5 28 9 55 8 60 -1 5 0 16 4 24 6 17 19 84 22 115 2 19 11 72 22 125 3 14
6 41 7 60 0 19 4 37 7 40 4 3 9 23 13 45 3 22 10 67 17 100 6 33 11 66 11 73
2 15 -82 14 746 14 645 1 712 2 713 17 4 52 3 67 -5 79 -4 6 -5 12 0 12 11 0
10 51 0 68 -4 7 -4 12 1 12 4 0 8 29 8 65 0 36 -4 65 -9 65 -5 0 -4 6 0 13 5
6 9 28 9 47 l0 35 -419 2 c-230 1 -421 4 -424 7 -8 8 -8 65 -1 60 4 -2 10 20
14 49 4 28 8 59 10 67 2 8 6 29 9 45 21 120 38 213 40 230 2 11 14 79 27 150
13 72 23 144 24 162 0 17 3 29 7 27 3 -2 10 24 14 59 4 34 8 64 9 67 12 51 25
152 21 159 -3 5 -2 11 3 13 5 1 12 21 15 43 4 22 9 56 12 75 4 19 7 42 9 50 1
8 5 31 9 50 6 33 9 52 21 118 23 126 26 152 19 163 -4 7 -3 10 3 6 10 -6 25
64 27 131 1 17 3 32 6 32 3 0 7 10 7 23 1 12 5 32 8 44 5 23 -2 31 -35 39 -11
2 -30 7 -42 10 -41 11 -78 16 -78 11 0 -2 -7 -44 -16 -93 -9 -49 -17 -98 -18
-109 -3 -18 -25 -139 -41 -220 -3 -16 -8 -41 -10 -55 -2 -14 -6 -38 -9 -55 -3
-16 -8 -47 -11 -69 -4 -21 -9 -48 -11 -60 -9 -39 -17 -91 -17 -123 -1 -17 -5
-29 -9 -27 -4 3 -8 -7 -9 -23 0 -15 -2 -35 -4 -43 -4 -21 -36 -201 -40 -225
-1 -11 -7 -40 -13 -65 -12 -52 -24 -133 -26 -172 -1 -16 -5 -28 -10 -28 -5 0
-7 -3 -3 -6 3 -3 1 -17 -4 -31 -7 -18 -6 -30 3 -41 10 -12 10 -14 1 -8 -7 4
-13 4 -14 -1 -1 -15 -6 -48 -12 -78 -3 -16 -9 -50 -13 -75 -4 -25 -8 -47 -9
-50 -3 -14 -18 -98 -21 -115 -1 -11 -7 -39 -12 -62 -5 -23 -7 -44 -4 -48 3 -3
-8 -5 -24 -6 -28 0 -262 0 -317 1 -29 0 -29 -2 -12 90 7 36 17 92 21 115 1 11
12 72 24 135 12 63 23 124 24 135 2 11 6 34 9 50 6 36 19 114 23 135 3 23 15
90 20 114 6 27 22 112 28 151 3 17 7 41 11 55 3 14 7 41 10 60 3 19 10 59 16
88 6 30 9 63 6 73 -3 10 -1 17 4 13 5 -3 9 3 10 13 1 20 2 31 24 147 8 44 13
81 10 84 -3 3 -1 10 4 16 5 6 11 31 14 56 4 25 9 56 11 70 13 62 16 77 22 114
3 21 8 48 10 60 5 24 21 117 28 161 3 17 10 54 16 84 5 29 10 60 10 67 0 10
-79 13 -390 13 -214 1 -390 -2 -391 -6 0 -5 -2 -15 -4 -23 -8 -33 -13 -57 -20
-100 -4 -25 -9 -54 -11 -65 -2 -11 -7 -33 -9 -50 -3 -16 -12 -66 -20 -110 -8
-44 -17 -97 -19 -119 -3 -21 -8 -46 -10 -55 -3 -9 -8 -29 -10 -46 -5 -29 -48
-273 -61 -345 -21 -117 -16 -110 -291 -453 -147 -183 -337 -420 -423 -529
-171 -215 -160 -207 -268 -200 l-53 4 3 48 c1 26 5 46 10 43 4 -2 8 13 9 34 3
73 4 79 11 89 6 10 9 23 21 104 3 19 7 44 10 55 2 11 7 40 11 65 4 25 9 52 10
61 14 73 17 99 19 129 0 19 3 37 6 40 9 8 37 169 29 164 -4 -2 -11 1 -15 7 -4
7 -3 9 4 5 14 -8 21 3 27 50 3 22 8 50 11 64 2 14 7 39 9 55 3 17 8 46 12 65
3 19 7 44 9 55 2 11 14 81 28 155 33 185 39 220 40 257 1 18 4 33 7 33 7 0 30
129 34 188 1 17 5 35 8 39 4 3 7 16 7 28 0 20 -10 25 -75 40 -41 10 -77 16
-80 14 -2 -3 -6 -25 -8 -49 -3 -25 -7 -52 -10 -60 -3 -8 -15 -71 -27 -140 -13
-69 -24 -134 -26 -145 -10 -50 -17 -102 -18 -130 -1 -16 -4 -32 -7 -35 -4 -3
-10 -23 -13 -45 -12 -72 -17 -100 -21 -115 -2 -8 -7 -33 -10 -55 -3 -23 -8
-52 -11 -65 -2 -14 -7 -38 -9 -55 -3 -16 -7 -41 -10 -55 -3 -14 -14 -74 -25
-135 -11 -60 -21 -119 -24 -130 -2 -11 -7 -42 -11 -70 -5 -27 -9 -52 -10 -55
0 -3 -4 -27 -9 -53 -4 -27 -9 -59 -12 -70 -2 -12 -7 -37 -10 -56 -3 -18 -8
-43 -10 -55 -11 -56 -17 -93 -18 -118 -1 -16 -4 -28 -8 -28 -4 0 -7 -12 -7
-27 0 -16 -2 -39 -6 -53 -3 -14 -8 -38 -10 -53 -1 -15 -5 -30 -7 -32 -4 -4
-240 -8 -336 -6 -21 1 -22 4 -16 44 4 23 8 54 8 70 1 15 4 27 7 27 4 0 10 26
15 58 4 31 8 59 9 62 1 3 5 25 9 50 4 25 9 52 10 60 17 93 18 111 5 128 -13
15 -12 16 4 3 11 -9 17 -10 17 -2 0 6 16 101 35 211 20 111 33 205 30 210 -4
6 -2 10 3 10 5 0 13 21 16 48 4 26 10 63 14 82 3 19 6 49 7 67 0 17 3 29 6 28
8 -6 30 145 22 157 -3 7 -1 8 5 4 6 -4 11 1 11 11 -1 19 1 30 27 168 20 112
27 153 28 185 1 14 4 27 7 30 11 10 41 218 34 231 -5 7 -4 10 2 6 6 -4 13 10
16 36 4 23 9 59 12 79 l7 37 -401 1 -401 0 -4 -22z m615 -125 c13 -16 12 -17
-3 -4 -10 7 -18 15 -18 17 0 8 8 3 21 -13z m1629 -37 c0 -2 -8 -10 -17 -17
-16 -13 -17 -12 -4 4 13 16 21 21 21 13z m-2076 -134 c3 -5 -1 -9 -9 -9 -8 0
-12 4 -9 9 3 4 7 8 9 8 2 0 6 -4 9 -8z m1076 -18 c0 -8 -19 -13 -24 -6 -3 5 1
9 9 9 8 0 15 -2 15 -3z m-865 -113 c3 -5 2 -12 -3 -15 -5 -3 -9 1 -9 9 0 17 3
19 12 6z m-45 -145 c0 -2 -8 -10 -17 -17 -16 -13 -17 -12 -4 4 13 16 21 21 21
13z m2335 -346 c3 -6 -1 -7 -9 -4 -18 7 -21 14 -7 14 6 0 13 -4 16 -10z
m-2665 -4 c0 -2 -8 -10 -17 -17 -16 -13 -17 -12 -4 4 13 16 21 21 21 13z
m2560 -50 c0 -2 -7 -7 -16 -10 -8 -3 -12 -2 -9 4 6 10 25 14 25 6z m-2240 -50
c-7 -7 -13 -7 -20 0 -6 6 -3 10 10 10 13 0 16 -4 10 -10z m-386 -62 c3 -8 2
-12 -4 -9 -6 3 -10 10 -10 16 0 14 7 11 14 -7z m220 -140 c3 -8 2 -12 -4 -9
-6 3 -10 10 -10 16 0 14 7 11 14 -7z m2416 13 c0 -2 -10 -12 -22 -23 l-23 -19
19 23 c18 21 26 27 26 19z m-2410 -167 c0 -5 -2 -10 -4 -10 -3 0 -8 5 -11 10
-3 6 -1 10 4 10 6 0 11 -4 11 -10z m2381 -17 c13 -16 12 -17 -3 -4 -10 7 -18
15 -18 17 0 8 8 3 21 -13z m-2381 -47 c0 -2 -8 -10 -17 -17 -16 -13 -17 -12
-4 4 13 16 21 21 21 13z m-106 -122 c3 -8 2 -12 -4 -9 -6 3 -10 10 -10 16 0
14 7 11 14 -7z m952 -76 c3 -4 -1 -5 -10 -4 -8 1 -18 5 -22 8 -3 4 1 5 10 4 8
-1 18 -5 22 -8z m849 -57 c0 -22 -3 -37 -6 -35 -4 2 -9 -15 -12 -39 -5 -44
-14 -93 -22 -116 -3 -7 0 -21 7 -29 10 -12 10 -14 1 -8 -7 4 -13 4 -14 -1 -1
-15 -9 -68 -13 -88 -3 -11 -5 -30 -5 -42 -1 -21 -6 -23 -64 -23 -37 0 -69 -5
-76 -12 -11 -11 -13 -10 -7 0 6 9 -7 12 -54 11 -33 -1 -62 0 -65 2 -3 3 324
419 329 419 1 0 1 -18 1 -39z m326 -18 c13 -16 12 -17 -3 -4 -17 13 -22 21
-14 21 2 0 10 -8 17 -17z m235 2 c-1 -8 -5 -17 -8 -21 -5 -4 -4 16 1 34 3 9 9
-1 7 -13z m-2165 -18 c-10 -9 -11 -8 -5 6 3 10 9 15 12 12 3 -3 0 -11 -7 -18z
m-416 -26 c3 -5 2 -12 -3 -15 -5 -3 -9 1 -9 9 0 17 3 19 12 6z m319 -59 c3 -5
-1 -9 -9 -9 -8 0 -12 4 -9 9 3 4 7 8 9 8 2 0 6 -4 9 -8z m1917 -89 c13 -16 12
-17 -3 -4 -17 13 -22 21 -14 21 2 0 10 -8 17 -17z m-1907 -71 c3 -5 -1 -9 -9
-9 -8 0 -12 4 -9 9 3 4 7 8 9 8 2 0 6 -4 9 -8z m-144 -56 c0 -2 -7 -7 -16 -10
-8 -3 -12 -2 -9 4 6 10 25 14 25 6z m-344 -132 c1 -9 0 -13 -4 -10 -3 4 -7 14
-8 22 -1 9 0 13 4 10 3 -4 7 -14 8 -22z m1275 -21 c13 -16 12 -17 -3 -4 -17
13 -22 21 -14 21 2 0 10 -8 17 -17z m-618 -8 c-3 -9 -8 -14 -10 -11 -3 3 -2 9
2 15 9 16 15 13 8 -4z m-322 -12 c13 -16 12 -17 -3 -4 -17 13 -22 21 -14 21 2
0 10 -8 17 -17z m3675 5 c3 -4 -1 -5 -10 -4 -8 1 -18 5 -22 8 -3 4 1 5 10 4 8
-1 18 -5 22 -8z m-1606 -52 c0 -2 -7 -7 -16 -10 -8 -3 -12 -2 -9 4 6 10 25 14
25 6z m-2390 -40 c0 -2 -8 -10 -17 -17 -16 -13 -17 -12 -4 4 13 16 21 21 21
13z m2735 -66 c3 -6 -1 -7 -9 -4 -18 7 -21 14 -7 14 6 0 13 -4 16 -10z m-2745
-44 c0 -2 -8 -10 -17 -17 -16 -13 -17 -12 -4 4 13 16 21 21 21 13z m2556 -82
c1 -9 0 -13 -4 -10 -3 4 -7 14 -8 22 -1 9 0 13 4 10 3 -4 7 -14 8 -22z m-2703
-13 c15 -1 17 -7 13 -28 -3 -16 -8 -48 -11 -73 -3 -25 -10 -72 -15 -105 -6
-33 -10 -63 -10 -67 0 -3 -16 -5 -35 -3 -19 2 -35 -1 -35 -7 0 -5 -5 -6 -12
-2 -18 11 -68 13 -68 2 0 -5 -5 -6 -12 -2 -6 4 -50 8 -97 8 -66 1 -90 -3 -101
-14 -8 -9 -11 -10 -6 -3 5 7 7 13 5 14 -22 6 -189 2 -189 -4 0 -5 -5 -5 -12
-1 -19 12 -62 11 -70 0 -5 -7 -8 -7 -8 -1 0 11 -80 12 -98 1 -7 -4 -12 -3 -12
1 0 5 -9 9 -20 10 -11 1 -20 -3 -20 -8 0 -15 -23 10 -135 149 -87 108 -100
128 -83 132 15 4 952 5 1031 1z m1242 -2 c2 -3 -66 -93 -153 -200 -86 -107
-204 -253 -261 -325 -57 -71 -109 -135 -116 -142 -12 -13 -11 1 19 168 4 19 9
49 11 65 3 17 9 53 15 80 5 28 12 64 15 80 18 110 46 262 49 270 3 10 411 14
421 4z m928 2 c12 -1 12 -13 0 -73 -7 -40 -11 -78 -9 -85 3 -6 1 -13 -4 -15
-7 -3 -18 -58 -20 -95 0 -7 -19 -10 -52 -9 -38 1 -57 -3 -68 -14 -8 -9 -11
-10 -6 -3 11 16 20 15 -109 17 -88 1 -113 -2 -125 -14 -8 -9 -11 -10 -6 -3 10
15 12 14 -39 18 -22 1 -46 -2 -52 -8 -8 -6 -13 -6 -13 0 0 16 -33 11 -50 -7
-8 -9 -11 -10 -6 -3 10 16 13 15 -51 17 -29 1 -53 -2 -53 -7 0 -4 -6 -5 -12 0
-7 4 -24 6 -37 4 -18 -2 -22 1 -18 12 8 22 204 264 216 268 9 3 467 3 514 0z
m547 -115 c0 -2 -8 -10 -17 -17 -16 -13 -17 -12 -4 4 13 16 21 21 21 13z
m-2313 -61 c0 -8 -4 -12 -9 -9 -5 3 -6 10 -3 15 9 13 12 11 12 -6z m349 -7 c3
-4 -1 -5 -10 -4 -8 1 -18 5 -22 8 -3 4 1 5 10 4 8 -1 18 -5 22 -8z m1571 -3
c0 -8 -4 -12 -9 -9 -5 3 -6 10 -3 15 9 13 12 11 12 -6z m-1863 -141 c3 -8 2
-12 -4 -9 -6 3 -10 10 -10 16 0 14 7 11 14 -7z m2081 -2 c-3 -3 -11 0 -18 7
-9 10 -8 11 6 5 10 -3 15 -9 12 -12z m-2881 -18 c3 -8 2 -12 -4 -9 -6 3 -10
10 -10 16 0 14 7 11 14 -7z m3200 -12 c3 -5 -1 -9 -9 -9 -8 0 -12 4 -9 9 3 4
7 8 9 8 2 0 6 -4 9 -8z m-2873 -39 c13 -16 12 -17 -3 -4 -10 7 -18 15 -18 17
0 8 8 3 21 -13z m-46 -56 c-8 -47 -9 -54 -21 -117 -4 -25 -8 -47 -9 -50 -1 -3
-7 -39 -14 -80 -15 -89 -18 -108 -25 -136 -2 -12 -7 -38 -10 -58 -3 -20 -10
-54 -15 -75 -5 -22 -6 -42 -3 -46 3 -3 -3 -5 -14 -6 -43 -3 -69 4 -80 20 -9
12 -208 259 -307 381 -7 8 -41 51 -76 95 -35 44 -70 87 -78 97 -13 15 10 16
322 17 l337 0 -7 -42z m2165 25 c0 -9 -4 -32 -9 -50 -7 -23 -6 -32 2 -32 9 0
9 -2 1 -8 -7 -4 -15 -25 -18 -47 -3 -22 -9 -58 -13 -80 -4 -22 -7 -44 -8 -50
0 -5 -4 -26 -9 -45 -4 -19 -9 -48 -11 -65 -2 -16 -4 -30 -5 -30 -1 0 -3 -13
-5 -30 -2 -16 -6 -43 -10 -60 -6 -31 -11 -61 -14 -82 0 -7 -14 -13 -31 -13
-22 0 -42 11 -69 38 -55 54 -406 390 -439 420 -81 75 -152 142 -152 146 0 2
178 5 395 5 368 1 395 -1 395 -17z m2064 -50 c-39 -37 -139 -132 -224 -212
-157 -148 -206 -195 -296 -282 l-52 -50 -140 -2 c-138 -1 -141 -1 -145 21 -2
12 -1 24 4 25 4 2 10 23 13 48 2 25 5 45 6 45 1 0 3 12 5 28 2 15 9 53 16 84
6 32 12 71 13 88 2 17 5 35 8 41 3 5 9 27 12 49 3 22 8 51 11 65 2 14 7 37 9
53 12 72 -29 66 424 66 l407 0 -71 -67z m-907 -107 c0 -8 -4 -12 -9 -9 -5 3
-6 10 -3 15 9 13 12 11 12 -6z m87 -13 c3 -5 -1 -9 -9 -9 -8 0 -12 4 -9 9 3 4
7 8 9 8 2 0 6 -4 9 -8z m-2888 -17 c-1 -8 -5 -17 -8 -21 -5 -4 -4 16 1 34 3 9
9 -1 7 -13z m59 -34 c3 -5 2 -12 -3 -15 -5 -3 -9 1 -9 9 0 17 3 19 12 6z
m1846 -8 c13 -16 12 -17 -3 -4 -17 13 -22 21 -14 21 2 0 10 -8 17 -17z m412
-78 c-3 -9 -8 -14 -10 -11 -3 3 -2 9 2 15 9 16 15 13 8 -4z m-63 -19 c0 -2 -8
-10 -17 -17 -16 -13 -17 -12 -4 4 13 16 21 21 21 13z m-1687 -78 c-7 -40 -16
-86 -18 -103 -16 -93 -8 -87 -100 -87 -87 0 -89 2 -52 42 12 14 57 69 100 123
43 53 79 97 81 97 2 0 -3 -33 -11 -72z m352 -92 c115 -110 123 -98 -70 -98
-145 0 -142 0 -148 22 -3 11 -1 18 4 14 5 -3 9 3 10 13 0 10 2 27 5 38 2 11 5
38 6 60 2 22 6 42 10 45 4 3 8 20 10 38 l2 32 36 -34 c19 -19 80 -77 135 -130z
m676 -49 c-10 -9 -11 -8 -5 6 3 10 9 15 12 12 3 -3 0 -11 -7 -18z m229 9 c0
-2 -8 -10 -17 -17 -16 -13 -17 -12 -4 4 13 16 21 21 21 13z m961 -13 c13 -16
12 -17 -3 -4 -17 13 -22 21 -14 21 2 0 10 -8 17 -17z m-815 -5 c3 -4 -1 -5
-10 -4 -8 1 -18 5 -22 8 -3 4 1 5 10 4 8 -1 18 -5 22 -8z m-4051 -86 c-3 -3
-11 0 -18 7 -9 10 -8 11 6 5 10 -3 15 -9 12 -12z m480 0 c-3 -3 -11 0 -18 7
-9 10 -8 11 6 5 10 -3 15 -9 12 -12z m-460 -61 c3 -5 2 -12 -3 -15 -5 -3 -9 1
-9 9 0 17 3 19 12 6z m486 -8 c13 -16 12 -17 -3 -4 -10 7 -18 15 -18 17 0 8 8
3 21 -13z m3390 -10 c13 -16 12 -17 -3 -4 -17 13 -22 21 -14 21 2 0 10 -8 17
-17z m-3731 -148 c14 -19 14 -19 -2 -6 -10 7 -18 18 -18 24 0 6 1 8 3 6 1 -2
9 -13 17 -24z m170 21 c0 -2 -8 -10 -17 -17 -16 -13 -17 -12 -4 4 13 16 21 21
21 13z m480 -42 c0 -8 -19 -13 -24 -6 -3 5 1 9 9 9 8 0 15 -2 15 -3z m3840 0
c0 -8 -19 -13 -24 -6 -3 5 1 9 9 9 8 0 15 -2 15 -3z m1511 -101 c13 -16 12
-17 -3 -4 -10 7 -18 15 -18 17 0 8 8 3 21 -13z m-1616 -3 c-3 -5 -1 -10 4 -10
6 0 11 6 11 13 0 8 3 8 8 2 10 -15 113 -15 105 -1 -5 8 -3 8 8 0 8 -6 33 -10
57 -10 23 1 42 -1 42 -3 0 -5 -37 -41 -229 -220 -134 -126 -151 -140 -166
-140 -5 -1 -32 19 -59 44 -48 44 -48 45 -42 92 3 26 9 62 12 78 3 17 7 39 9
50 7 51 18 95 24 96 3 1 50 2 103 3 53 1 100 5 104 9 11 10 16 9 9 -3z m895
-334 c0 -2 -7 -7 -16 -10 -8 -3 -12 -2 -9 4 6 10 25 14 25 6z m-1595 -85 c-9
-8 -36 -10 -30 -2 2 4 11 8 20 8 8 0 13 -3 10 -6z m-2394 -108 c13 -16 12 -17
-3 -4 -10 7 -18 15 -18 17 0 8 8 3 21 -13z m294 -153 c-3 -5 -12 -10 -18 -10
-7 0 -6 4 3 10 19 12 23 12 15 0z m-145 -54 c0 -2 -7 -7 -16 -10 -8 -3 -12 -2
-9 4 6 10 25 14 25 6z m376 -101 c-1 -8 -5 -17 -8 -21 -5 -4 -4 16 1 34 3 9 9
-1 7 -13z m-220 -280 c-1 -8 -5 -17 -8 -21 -5 -4 -4 16 1 34 3 9 9 -1 7 -13z
m-316 -49 c0 -2 -8 -10 -17 -17 -16 -13 -17 -12 -4 4 13 16 21 21 21 13z m311
-103 c13 -16 12 -17 -3 -4 -17 13 -22 21 -14 21 2 0 10 -8 17 -17z m-377 -59
c3 -8 2 -12 -4 -9 -6 3 -10 10 -10 16 0 14 7 11 14 -7z m336 -308 c0 -2 -8
-10 -17 -17 -16 -13 -17 -12 -4 4 13 16 21 21 21 13z m-250 -150 c0 -2 -8 -10
-17 -17 -16 -13 -17 -12 -4 4 13 16 21 21 21 13z m2321 -13 c13 -16 12 -17 -3
-4 -10 7 -18 15 -18 17 0 8 8 3 21 -13z m-1424 -8 c0 -8 -4 -12 -9 -9 -5 3 -6
10 -3 15 9 13 12 11 12 -6z m1288 6 c-9 -8 -36 -10 -30 -2 2 4 11 8 20 8 8 0
13 -3 10 -6z m-2194 -168 c13 -16 12 -17 -3 -4 -17 13 -22 21 -14 21 2 0 10
-8 17 -17z m-331 -77 c0 -2 -8 -10 -17 -17 -16 -13 -17 -12 -4 4 13 16 21 21
21 13z m1180 -60 c0 -2 -8 -10 -17 -17 -16 -13 -17 -12 -4 4 13 16 21 21 21
13z m-609 -29 c-10 -9 -11 -8 -5 6 3 10 9 15 12 12 3 -3 0 -11 -7 -18z m1820
-54 c13 -16 12 -17 -3 -4 -17 13 -22 21 -14 21 2 0 10 -8 17 -17z m-2475 -59
c1 -9 0 -13 -4 -10 -3 4 -7 14 -8 22 -1 9 0 13 4 10 3 -4 7 -14 8 -22z"/>
</g>
</svg>
